# AST/ASF file generated using VICON BodyLanguage
# -----------------------------------------------
:version 1.10
:name VICON
:units
  mass 1.0
  length 0.45
  angle deg
:documentation
   .ast/.asf automatically generated from VICON data using
   VICON BodyBuilder and BodyLanguage model FoxedUp or BRILLIANT.MOD
:root
   order TX TY TZ RX RY RZ
   axis XYZ
   position 0 0 0  
   orientation 0 0 0 
:bonedata
  begin
     id 1 
     name lhipjoint
     direction 0.575328 -0.747301 0.332475 
     length 2.40933 
     axis 0 0 0  XYZ
  end
  begin
     id 2 
     name lfemur
     direction 0.34202 -0.939693 0  
     length 7.31453  
     axis 0 0 20  XYZ
    dof rx ry rz
    limits (-160.0 20.0)
           (-70.0 70.0)
           (-60.0 70.0)
  end
  begin
     id 3 
     name ltibia
     direction 0.34202 -0.939693 0   
     length 7.82185   
     axis 0 0 20   XYZ
    dof rx
    limits (-10.0 170.0)
  end
  begin
     id 4 
     name lfoot
     direction 0.0795993 -0.218697 0.972541   
     length 2.19173   
     axis -90 7.62852e-016 20   XYZ
    dof rx rz
    limits (-45.0 90.0)
           (-70.0 20.0)
  end
  begin
     id 5 
     name ltoes
     direction 1.53537e-011 -4.21894e-011 1   
     length 1.10023   
     axis -90 7.62852e-016 20   XYZ
    dof rx
    limits (-90.0 20.0)
  end
  begin
     id 6 
     name rhipjoint
     direction -0.513884 -0.783789 0.348708   
     length 2.29716  
     axis 0 0 0  XYZ 
  end
  begin
     id 7 
     name rfemur
     direction -0.34202 -0.939693 0   
     length 7.59573   
     axis 0 0 -20   XYZ
    dof rx ry rz
    limits (-160.0 20.0)
           (-70.0 70.0)
           (-70.0 60.0)
  end
  begin
     id 8 
     name rtibia
     direction -0.34202 -0.939693 0   
     length 7.66402   
     axis 0 0 -20   XYZ
    dof rx
    limits (-10.0 170.0)
 end
 begin
     id 9 
     name rfoot
     direction -0.137793 -0.378584 0.915253   
     length 2.27056  
     axis -90 -7.62852e-016 -20   XYZ
    dof rx rz
    limits (-45.0 90.0)
           (-20.0 70.0)
  end
  begin
     id 10 
     name rtoes
     direction -1.53493e-011 -4.22159e-011 1   
     length 1.11766   
     axis -90 -7.62852e-016 -20   XYZ
    dof rx
    limits (-90.0 20.0)
  end
  begin
     id 11 
     name lowerback
     direction -0.00732775 0.998356 -0.05685   
     length 2.16513   
     axis 0 0 0   XYZ
    dof rx ry rz
    limits (-20.0 45.0)
           (-30.0 30.0)
           (-30.0 30.0)
  end
  begin
     id 12 
     name upperback
     direction 0.0218081 0.999627 -0.0164647   
     length 2.16755   
     axis 0 0 0   XYZ
    dof rx ry rz
    limits (-20.0 45.0)
           (-30.0 30.0)
           (-30.0 30.0)
  end
  begin
     id 13 
     name thorax
     direction 0.02365 0.999661 0.0108914   
     length 2.16932   
     axis 0 0 0   XYZ
    dof rx ry rz
    limits (-20.0 45.0)
           (-30.0 30.0)
           (-30.0 30.0)
  end
  begin
     id 14 
     name lowerneck
     direction -0.0523929 0.978385 0.200044   
     length 1.63877   
     axis 0 0 0   XYZ
    dof rx ry rz
    limits (-20.0 45.0)
           (-30.0 30.0)
           (-30.0 30.0)
  end
  begin
     id 15 
     name upperneck
     direction 0.0448674 0.981321 -0.187074   
     length 1.69014   
     axis 0 0 0   XYZ
    dof rx ry rz
    limits (-20.0 45.0)
           (-30.0 30.0)
           (-30.0 30.0)
  end
  begin
     id 16
     name head
     direction 0.0199089 0.996118 -0.0857429  
     length 1.70094  
     axis 0 0 0   XYZ
    dof rx ry rz
    limits (-20.0 45.0)
           (-30.0 30.0)
           (-30.0 30.0)
  end
  begin
     id 17 
     name lclavicle
     direction 0.940366 0.30191 -0.156722  
     length 3.37521  
     axis 0 0 0   XYZ
    dof ry rz
    limits (-20.0 10.0)
           (0.0 20.0)
  end
  begin
     id 18 
     name lhumerus
     direction 1 -4.4897e-011 -1.7911e-027   
     length 5.25287   
     axis 180 -30 -90   XYZ
    dof rx ry rz
    limits (-60.0 90.0)
           (-90.0 90.0)
           (-90.0 90.0)
  end
  begin
     id 19
     name lradius
     direction 1 -4.48951e-011 1.04424e-027   
     length 3.51014   
     axis 180 -30 -90   XYZ
    dof rx
    limits (-10.0 170.0)
  end
  begin
     id 20
     name lwrist
     direction 1 -4.48997e-011 -9.5942e-028   
     length 1.75507   
     axis 8.48502e-016 90 90   XYZ
    dof ry
    limits (-180.0 0.0)
 end
  begin
     id 21 
     name lhand
     direction 1 -4.48831e-011 -1.90777e-027   
     length 0.706179   
     axis 1.22306e-015 90 90   XYZ
    dof rx rz
    limits (-90.0 90.0)
           (-45.0 45.0)
  end
  begin
     id 22 
     name lfingers
     direction 1 -4.49108e-011 -3.85244e-027   
     length 0.569339   
     axis 2.44611e-015 90 90   XYZ
    dof rx
    limits (0.0 90.0)
  end
  begin
     id 23
     name lthumb
     direction 0.707107 -6.34953e-011 0.707107   
     length 0.817461   
     axis -90 45 -1.62303e-014   XYZ
    dof rx rz
    limits (-45.0 45.0)
           (-45.0 45.0)
  end
  begin
     id 24 
     name rclavicle
     direction -0.905329 0.382405 -0.184787   
     length 3.30787  
     axis 0 0 0   XYZ 
    dof ry rz
    limits (-10.0 20.0)
           (-20.0 0.0)
  end
  begin
     id 25 
     name rhumerus
     direction -1 -4.48953e-011 -9.15316e-029  
     length 5.28721   
     axis 180 30 90   XYZ
    dof rx ry rz
    limits (-90.0 60.0)
           (-90.0 90.0)
           (-90.0 90.0)
  end
  begin
     id 26 
     name rradius
     direction -1 -4.48987e-011 9.37824e-028   
     length 3.50544   
     axis 180 30 90   XYZ
    dof rx
    limits (-10.0 170.0)
  end
  begin
     id 27 
     name rwrist
     direction -1 -4.48967e-011 -9.58414e-028   
     length 1.75272   
     axis 8.48502e-016 -90 -90   XYZ
    dof ry
    limits (-180.0 0.0)
  end
  begin
     id 28
     name rhand
     direction -1 -4.48904e-011 -1.91266e-027   
     length 0.884996   
     axis 1.22306e-015 -90 -90   XYZ
    dof rx rz
    limits (-90.0 90.0)
           (-45.0 45.0)
  end
  begin
     id 29
     name rfingers
     direction -1 -4.4909e-011 -3.85015e-027   
     length 0.713507   
     axis 2.44611e-015 -90 -90   XYZ
    dof rx
    limits (0.0 90.0)
  end
  begin
     id 30
     name rthumb
     direction -0.707107 -6.34853e-011 0.707107   
     length 1.02446   
     axis -90 -45 1.62303e-014   XYZ
    dof rx rz
    limits (-45.0 45.0)
           (-45.0 45.0)
  end
:hierarchy
  begin
    root lhipjoint rhipjoint lowerback
    lhipjoint lfemur
    lfemur ltibia
    ltibia lfoot
    lfoot ltoes
    rhipjoint rfemur
    rfemur rtibia
    rtibia rfoot
    rfoot rtoes
    lowerback upperback
    upperback thorax
    thorax lowerneck lclavicle rclavicle
    lowerneck upperneck
    upperneck head
    lclavicle lhumerus
    lhumerus lradius
    lradius lwrist
    lwrist lhand lthumb
    lhand lfingers
    rclavicle rhumerus
    rhumerus rradius
    rradius rwrist
    rwrist rhand rthumb
    rhand rfingers
  end

#!OML:ASF F:\twosubjects\two\Thursday\Session 1\justin.ASF
:FULLY-SPECIFIED
:DEGREES
16
root -10.5847 17.1171 -0.797332 3.84229 11.2157 4.07844
lowerback 4.05344 -3.197 -1.32134
upperback -0.528029 -4.14172 7.13279
thorax -2.19389 -2.01601 8.45694
lowerneck -13.3956 -0.3835 -2.67997
upperneck 0.513542 -0.647204 12.2362
head 2.40243 0.127064 4.13385
rclavicle -1.59028e-015 6.04305e-014
rhumerus 47.9679 19.958 -84.5351
rradius 57.9167
rwrist -8.31602
rhand -19.5517 25.0479
rfingers 7.12502
rthumb 6.77258 -4.82382
lclavicle -1.59028e-015 6.04305e-014
lhumerus 48.1322 -17.2685 96.4929
lradius 56.5159
lwrist 52.2222
lhand -1.69462 53.801
lfingers 7.12502
lthumb 23.9663 82.3251
rfemur -40.4542 -8.74197 19.2028
rtibia 46.4218
rfoot -8.62811 -6.80244
rtoes -16.6904
lfemur -3.71773 2.62388 -21.5766
ltibia 56.7167
lfoot -4.7034 -8.07895
ltoes -24.1896
17
root -10.5786 17.1238 -0.643442 3.80707 10.6055 3.84393
lowerback 4.17555 -3.14134 -1.18503
upperback -0.0334788 -4.08006 7.25105
thorax -1.7584 -2.00916 8.48881
lowerneck -15.3525 -0.669461 -3.20384
upperneck 2.05664 -1.12944 12.7057
head 3.22511 0.0204459 4.3636
rclavicle -1.19271e-015 -6.67916e-014
rhumerus 46.481 19.8537 -85.0663
rradius 58.3674
rwrist -4.7669
rhand -20.2279 23.9165
rfingers 7.12502
rthumb 6.11978 -5.97516
lclavicle -1.19271e-015 -6.67916e-014
lhumerus 47.2093 -17.5702 96.6491
lradius 56.0133
lwrist 48.7015
lhand 2.47637 52.9743
lfingers 7.12502
lthumb 27.9601 80.9122
rfemur -40.0703 -8.14252 19.5341
rtibia 46.7968
rfoot -9.3527 -7.10022
rtoes -16.8849
lfemur -5.16209 3.1442 -21.1807
ltibia 58.7659
lfoot -3.11549 -8.27678
ltoes -15.2032
18
root -10.5606 17.1435 -0.488623 3.77068 9.91938 3.78251
lowerback 4.35754 -3.27713 -1.24293
upperback 0.157975 -4.26724 7.4734
thorax -1.61069 -2.1123 8.77689
lowerneck -16.4266 -0.651103 -4.2997
upperneck 3.86672 -1.12748 13.3895
head 3.96027 0.135304 4.79286
rclavicle -1.19271e-014 2.54444e-014
rhumerus 44.6639 20.7421 -85.2792
rradius 58.529
rwrist -2.92595
rhand -22.3699 20.6035
rfingers 7.12502
rthumb 4.05153 -9.33773
lclavicle -1.19271e-014 2.54444e-014
lhumerus 45.2957 -17.0711 97.0319
lradius 56.1381
lwrist 46.9382
lhand 5.40479 52.3475
lfingers 7.12502
lthumb 30.756 79.7952
rfemur -39.5561 -7.65233 19.6718
rtibia 47.022
rfoot -10.0278 -7.26433
rtoes -17.5729
lfemur -6.50947 3.66522 -21.0899
ltibia 60.534
lfoot -3.78911 -5.76982
ltoes -17.7011
19
root -10.5393 17.1777 -0.329914 3.77798 9.26011 3.66311
lowerback 4.49636 -3.308 -1.10735
upperback 0.190443 -4.29864 7.5392
thorax -1.65468 -2.12879 8.78034
lowerneck -15.5283 -0.842668 -3.31208
upperneck 3.87156 -1.45886 11.8531
head 3.81397 -0.124028 4.1049
rclavicle -3.89618e-014 -3.18055e-014
rhumerus 42.7393 21.3566 -85.4575
rradius 58.5527
rwrist -3.31342
rhand -20.6729 26.5165
rfingers 7.12502
rthumb 5.69016 -3.38715
lclavicle -3.89618e-014 -3.18055e-014
lhumerus 43.0478 -17.0247 97.4007
lradius 56.656
lwrist 47.6612
lhand 5.12074 52.2733
lfingers 7.12502
lthumb 30.4851 79.7716
rfemur -39.0725 -7.1826 19.8299
rtibia 47.1533
rfoot -10.6586 -7.33445
rtoes -17.9787
lfemur -7.86164 4.25157 -20.9433
ltibia 62.0632
lfoot -4.2304 -4.00877
ltoes -18.6556
20
root -10.519 17.2168 -0.173888 3.80142 8.61005 2.94769
lowerback 4.71844 -3.39955 -0.0670719
upperback 0.0443771 -4.34561 7.5354
thorax -2.00272 -2.14677 8.20038
lowerneck -15.1907 -0.860593 -3.25033
upperneck 4.89678 -1.59523 11.8554
head 4.08192 -0.169151 4.09151
rclavicle 1.82882e-014 3.18055e-015
rhumerus 40.4945 21.7999 -86.3521
rradius 58.5624
rwrist -5.10606
rhand -19.5462 29.891
rfingers 7.12502
rthumb 6.77789 0.0195349
lclavicle 1.82882e-014 3.18055e-015
lhumerus 40.4166 -16.8802 97.8307
lradius 57.3345
lwrist 50.2614
lhand 2.75494 53.4805
lfingers 7.12502
lthumb 28.2264 81.3747
rfemur -38.7004 -6.51042 20.5628
rtibia 47.2261
rfoot -11.2889 -7.42553
rtoes -16.7799
lfemur -9.25587 5.00966 -20.05
ltibia 63.3651
lfoot -4.49988 -2.8294
ltoes -17.2866
21
root -10.4936 17.2413 -0.016837 3.76501 8.06606 2.70423
lowerback 4.85397 -3.46537 0.347447
upperback 0.14935 -4.4094 7.57234
thorax -1.98928 -2.18409 8.01015
lowerneck -15.6459 -0.904912 -3.62159
upperneck 6.18953 -1.7167 11.9887
head 4.5653 -0.176648 4.20303
rclavicle -3.4191e-014 4.77083e-014
rhumerus 38.6723 22.1002 -86.7336
rradius 58.4853
rwrist -6.56003
rhand -20.3415 29.6141
rfingers 7.12502
rthumb 6.0101 -0.280704
lclavicle -3.4191e-014 4.77083e-014
lhumerus 38.1626 -16.691 98.4926
lradius 58.0292
lwrist 53.6868
lhand -0.303633 55.3148
lfingers 7.12502
lthumb 25.2995 83.657
rfemur -38.1798 -6.09124 20.754
rtibia 47.2904
rfoot -11.9268 -7.425
rtoes -15.607
lfemur -10.3703 5.49229 -19.7113
ltibia 64.4248
lfoot -5.14265 -1.7796
ltoes -14.4621
22
root -10.4642 17.266 0.139058 3.85998 7.57083 3.25889
lowerback 4.89043 -3.50971 0.0464655
upperback 0.360952 -4.5035 7.3566
thorax -1.77114 -2.23849 7.94562
lowerneck -16.214 -1.05789 -3.68541
upperneck 7.09879 -1.96727 11.7621
head 4.95495 -0.271469 4.13462
rclavicle -4.92986e-014 -3.18055e-015
rhumerus 36.8821 22.1341 -87.2316
rradius 58.3722
rwrist -6.83466
rhand -21.5953 22.498
rfingers 7.12502
rthumb 4.79956 -7.42767
lclavicle -4.92986e-014 -3.18055e-015
lhumerus 36.322 -16.7647 98.741
lradius 58.4465
lwrist 56.4571
lhand -2.50973 56.5438
lfingers 7.12502
lthumb 23.1844 85.1685
rfemur -37.66 -5.99359 20.1015
rtibia 47.3066
rfoot -12.5959 -7.17424
rtoes -15.9692
lfemur -11.4762 5.6707 -20.425
ltibia 65.2174
lfoot -6.4406 -0.27067
ltoes -17.275
23
root -10.4396 17.303 0.286604 4.07394 6.96734 3.22662
lowerback 4.78233 -3.5132 0.297755
upperback 0.574554 -4.51334 7.30845
thorax -1.51105 -2.25381 7.73006
lowerneck -16.2549 -1.24644 -3.56141
upperneck 7.28147 -2.20187 11.2234
head 5.02547 -0.412142 3.9223
rclavicle -3.97569e-016 -3.49861e-014
rhumerus 35.1665 22.2258 -87.5321
rradius 58.2528
rwrist -7.13035
rhand -20.8623 22.4618
rfingers 7.12502
rthumb 5.50726 -7.44667
lclavicle -3.97569e-016 -3.49861e-014
lhumerus 34.7632 -17.0648 98.6773
lradius 58.4805
lwrist 57.4225
lhand -3.31478 55.9077
lfingers 7.12502
lthumb 22.4118 84.6275
rfemur -37.3145 -5.60004 20.1168
rtibia 47.2527
rfoot -13.1932 -7.08673
rtoes -16.4666
lfemur -12.9521 6.04189 -20.4784
ltibia 65.8722
lfoot -6.75334 0.827473
ltoes -19.2667
24
root -10.4282 17.3311 0.429799 4.14239 6.63233 2.58938
lowerback 4.80089 -3.61155 1.04735
upperback 0.813148 -4.61595 7.41851
thorax -1.31102 -2.31438 7.41417
lowerneck -16.4985 -1.36739 -3.58545
upperneck 7.67366 -2.35945 10.9442
head 5.19381 -0.491292 3.82783
rclavicle -5.08889e-014 5.725e-014
rhumerus 33.9008 22.7791 -87.0587
rradius 57.8974
rwrist -8.31589
rhand -20.7798 22.0674
rfingers 7.12502
rthumb 5.58697 -7.83893
lclavicle -5.08889e-014 5.725e-014
lhumerus 33.1933 -17.402 98.5412
lradius 58.3415
lwrist 56.7732
lhand -3.04945 55.0323
lfingers 7.12502
lthumb 22.6665 83.7212
rfemur -36.8558 -5.14592 20.8215
rtibia 47.1416
rfoot -13.5833 -7.40697
rtoes -16.7819
lfemur -14.4449 6.29798 -19.6806
ltibia 66.434
lfoot -7.26175 1.49747
ltoes -19.7929
